{
	"asset":{
		"generator":"Khronos glTF Blender I/O v4.3.47",
		"version":"2.0"
	},
	"extensionsUsed":[
		"KHR_materials_specular"
	],
	"scene":0,
	"scenes":[
		{
			"name":"Scene",
			"nodes":[
				0
			]
		}
	],
	"nodes":[
		{
			"mesh":0,
			"name":"W110C70H100",
			"rotation":[
				0.7071068286895752,
				0,
				0,
				0.7071068286895752
			],
			"scale":[
				0.0010000000474974513,
				0.0010000000474974513,
				0.0010000000474974513
			]
		}
	],
	"materials":[
		{
			"doubleSided":true,
			"extensions":{
				"KHR_materials_specular":{
					"specularFactor":0.15000000596046448
				}
			},
			"name":"Linen_FRONT_30506097.054",
			"pbrMetallicRoughness":{
				"baseColorTexture":{
					"index":0
				},
				"metallicFactor":0,
				"roughnessFactor":0.8304027318954468
			}
		},
		{
			"doubleSided":true,
			"extensions":{
				"KHR_materials_specular":{
					"specularFactor":0.15000000596046448
				}
			},
			"name":"Material8394942.054",
			"pbrMetallicRoughness":{
				"baseColorTexture":{
					"index":1
				},
				"metallicFactor":0,
				"roughnessFactor":0.8304027318954468
			}
		}
	],
	"meshes":[
		{
			"extras":{
				"targetNames":[
					"W110C70H100_AL_max",
					"W110C70H100_AL_min",
					"W110C70H100_body_max",
					"W110C70H100_body_min"
				]
			},
			"name":"W110C70H100",
			"primitives":[
				{
					"attributes":{
						"POSITION":0,
						"NORMAL":1,
						"TEXCOORD_0":2
					},
					"indices":3,
					"material":0,
					"targets":[
						{
							"POSITION":4,
							"NORMAL":5
						},
						{
							"POSITION":6,
							"NORMAL":7
						},
						{
							"POSITION":8,
							"NORMAL":9
						},
						{
							"POSITION":10,
							"NORMAL":11
						}
					]
				},
				{
					"attributes":{
						"POSITION":12,
						"NORMAL":13,
						"TEXCOORD_0":14
					},
					"indices":15,
					"material":1,
					"targets":[
						{
							"POSITION":16,
							"NORMAL":17
						},
						{
							"POSITION":18,
							"NORMAL":19
						},
						{
							"POSITION":20,
							"NORMAL":21
						},
						{
							"POSITION":22,
							"NORMAL":23
						}
					]
				}
			],
			"weights":[
				0,
				0,
				0,
				0
			]
		}
	],
	"textures":[
		{
			"sampler":0,
			"source":0
		},
		{
			"sampler":0,
			"source":0
		}
	],
	"images":[
		{
			"mimeType":"image/png",
			"name":"W110C70H100_diffuse_1001",
			"uri":"W110C70H100_diffuse_1001.png"
		}
	],
	"accessors":[
		{
			"bufferView":0,
			"componentType":5126,
			"count":9430,
			"max":[
				508.11260986328125,
				332.4333190917969,
				-668.8818969726562
			],
			"min":[
				-514.7113647460938,
				-39.52420425415039,
				-1369.5445556640625
			],
			"type":"VEC3"
		},
		{
			"bufferView":1,
			"componentType":5126,
			"count":9430,
			"type":"VEC3"
		},
		{
			"bufferView":2,
			"componentType":5126,
			"count":9430,
			"type":"VEC2"
		},
		{
			"bufferView":3,
			"componentType":5123,
			"count":50124,
			"type":"SCALAR"
		},
		{
			"bufferView":4,
			"componentType":5126,
			"count":9430,
			"max":[
				146.64608764648438,
				50.91924285888672,
				132.60748291015625
			],
			"min":[
				-122.04244995117188,
				-45.43412780761719,
				-18.55072021484375
			],
			"type":"VEC3"
		},
		{
			"bufferView":5,
			"componentType":5126,
			"count":9430,
			"type":"VEC3"
		},
		{
			"bufferView":6,
			"componentType":5126,
			"count":9430,
			"max":[
				80.84915161132812,
				42.87981414794922,
				16.87371826171875
			],
			"min":[
				-81.26632690429688,
				-12.824020385742188,
				-90.9515380859375
			],
			"type":"VEC3"
		},
		{
			"bufferView":7,
			"componentType":5126,
			"count":9430,
			"type":"VEC3"
		},
		{
			"bufferView":8,
			"componentType":5126,
			"count":9430,
			"max":[
				55.12928771972656,
				62.62652587890625,
				-223.525390625
			],
			"min":[
				-60.997467041015625,
				-63.716766357421875,
				-269.11279296875
			],
			"type":"VEC3"
		},
		{
			"bufferView":9,
			"componentType":5126,
			"count":9430,
			"type":"VEC3"
		},
		{
			"bufferView":10,
			"componentType":5126,
			"count":9430,
			"max":[
				48.87237548828125,
				34.7471923828125,
				171.1103515625
			],
			"min":[
				-49.34382629394531,
				-38.231964111328125,
				136.06988525390625
			],
			"type":"VEC3"
		},
		{
			"bufferView":11,
			"componentType":5126,
			"count":9430,
			"type":"VEC3"
		},
		{
			"bufferView":12,
			"componentType":5126,
			"count":891,
			"max":[
				219.9266815185547,
				236.2288055419922,
				-1185.77978515625
			],
			"min":[
				-211.84616088867188,
				-2.8294448852539062,
				-1370.38818359375
			],
			"type":"VEC3"
		},
		{
			"bufferView":13,
			"componentType":5126,
			"count":891,
			"type":"VEC3"
		},
		{
			"bufferView":14,
			"componentType":5126,
			"count":891,
			"type":"VEC2"
		},
		{
			"bufferView":15,
			"componentType":5123,
			"count":4338,
			"type":"SCALAR"
		},
		{
			"bufferView":16,
			"componentType":5126,
			"count":891,
			"max":[
				2.6574554443359375,
				3.5864524841308594,
				4.6893310546875
			],
			"min":[
				-2.3275146484375,
				-2.4557952880859375,
				-5.668212890625
			],
			"type":"VEC3"
		},
		{
			"bufferView":17,
			"componentType":5126,
			"count":891,
			"type":"VEC3"
		},
		{
			"bufferView":18,
			"componentType":5126,
			"count":891,
			"max":[
				3.893890380859375,
				6.2358832359313965,
				9.5155029296875
			],
			"min":[
				-4.05670166015625,
				-2.347808837890625,
				-0.2735595703125
			],
			"type":"VEC3"
		},
		{
			"bufferView":19,
			"componentType":5126,
			"count":891,
			"type":"VEC3"
		},
		{
			"bufferView":20,
			"componentType":5126,
			"count":891,
			"max":[
				13.766502380371094,
				4.517124176025391,
				-250.4327392578125
			],
			"min":[
				-14.239784240722656,
				-16.048934936523438,
				-267.2314453125
			],
			"type":"VEC3"
		},
		{
			"bufferView":21,
			"componentType":5126,
			"count":891,
			"type":"VEC3"
		},
		{
			"bufferView":22,
			"componentType":5126,
			"count":891,
			"max":[
				2.3930435180664062,
				12.701797485351562,
				161.03466796875
			],
			"min":[
				-2.7195510864257812,
				-2.9132843017578125,
				150.477294921875
			],
			"type":"VEC3"
		},
		{
			"bufferView":23,
			"componentType":5126,
			"count":891,
			"type":"VEC3"
		}
	],
	"bufferViews":[
		{
			"buffer":0,
			"byteLength":113160,
			"byteOffset":0,
			"target":34962
		},
		{
			"buffer":0,
			"byteLength":113160,
			"byteOffset":113160,
			"target":34962
		},
		{
			"buffer":0,
			"byteLength":75440,
			"byteOffset":226320,
			"target":34962
		},
		{
			"buffer":0,
			"byteLength":100248,
			"byteOffset":301760,
			"target":34963
		},
		{
			"buffer":0,
			"byteLength":113160,
			"byteOffset":402008,
			"target":34962
		},
		{
			"buffer":0,
			"byteLength":113160,
			"byteOffset":515168,
			"target":34962
		},
		{
			"buffer":0,
			"byteLength":113160,
			"byteOffset":628328,
			"target":34962
		},
		{
			"buffer":0,
			"byteLength":113160,
			"byteOffset":741488,
			"target":34962
		},
		{
			"buffer":0,
			"byteLength":113160,
			"byteOffset":854648,
			"target":34962
		},
		{
			"buffer":0,
			"byteLength":113160,
			"byteOffset":967808,
			"target":34962
		},
		{
			"buffer":0,
			"byteLength":113160,
			"byteOffset":1080968,
			"target":34962
		},
		{
			"buffer":0,
			"byteLength":113160,
			"byteOffset":1194128,
			"target":34962
		},
		{
			"buffer":0,
			"byteLength":10692,
			"byteOffset":1307288,
			"target":34962
		},
		{
			"buffer":0,
			"byteLength":10692,
			"byteOffset":1317980,
			"target":34962
		},
		{
			"buffer":0,
			"byteLength":7128,
			"byteOffset":1328672,
			"target":34962
		},
		{
			"buffer":0,
			"byteLength":8676,
			"byteOffset":1335800,
			"target":34963
		},
		{
			"buffer":0,
			"byteLength":10692,
			"byteOffset":1344476,
			"target":34962
		},
		{
			"buffer":0,
			"byteLength":10692,
			"byteOffset":1355168,
			"target":34962
		},
		{
			"buffer":0,
			"byteLength":10692,
			"byteOffset":1365860,
			"target":34962
		},
		{
			"buffer":0,
			"byteLength":10692,
			"byteOffset":1376552,
			"target":34962
		},
		{
			"buffer":0,
			"byteLength":10692,
			"byteOffset":1387244,
			"target":34962
		},
		{
			"buffer":0,
			"byteLength":10692,
			"byteOffset":1397936,
			"target":34962
		},
		{
			"buffer":0,
			"byteLength":10692,
			"byteOffset":1408628,
			"target":34962
		},
		{
			"buffer":0,
			"byteLength":10692,
			"byteOffset":1419320,
			"target":34962
		}
	],
	"samplers":[
		{
			"magFilter":9729,
			"minFilter":9987
		}
	],
	"buffers":[
		{
			"byteLength":1430012,
			"uri":"W110C70H100.bin"
		}
	]
}
