{
	"asset":{
		"generator":"Khronos glTF Blender I/O v4.3.47",
		"version":"2.0"
	},
	"extensionsUsed":[
		"KHR_materials_specular"
	],
	"scene":0,
	"scenes":[
		{
			"name":"Scene",
			"nodes":[
				0
			]
		}
	],
	"nodes":[
		{
			"mesh":0,
			"name":"W110C90H120",
			"rotation":[
				0.7071068286895752,
				0,
				0,
				0.7071068286895752
			],
			"scale":[
				0.0010000000474974513,
				0.0010000000474974513,
				0.0010000000474974513
			]
		}
	],
	"materials":[
		{
			"doubleSided":true,
			"extensions":{
				"KHR_materials_specular":{
					"specularFactor":0.15000000596046448
				}
			},
			"name":"Linen_FRONT_30506097.125",
			"normalTexture":{
				"index":0,
				"scale":0
			},
			"pbrMetallicRoughness":{
				"baseColorTexture":{
					"index":1
				},
				"metallicFactor":0,
				"roughnessFactor":0.8304027318954468
			}
		},
		{
			"doubleSided":true,
			"extensions":{
				"KHR_materials_specular":{
					"specularFactor":0.15000000596046448
				}
			},
			"name":"Material8394942.125",
			"normalTexture":{
				"index":2,
				"scale":0
			},
			"pbrMetallicRoughness":{
				"baseColorTexture":{
					"index":3
				},
				"metallicFactor":0,
				"roughnessFactor":0.8304027318954468
			}
		}
	],
	"meshes":[
		{
			"extras":{
				"targetNames":[
					"W110C90H120_AL_max",
					"W110C90H120_AL_min",
					"W110C90H120_body_max",
					"W110C90H120_body_min"
				]
			},
			"name":"W110C90H120",
			"primitives":[
				{
					"attributes":{
						"POSITION":0,
						"NORMAL":1,
						"TEXCOORD_0":2
					},
					"indices":3,
					"material":0,
					"targets":[
						{
							"POSITION":4,
							"NORMAL":5
						},
						{
							"POSITION":6,
							"NORMAL":7
						},
						{
							"POSITION":8,
							"NORMAL":9
						},
						{
							"POSITION":10,
							"NORMAL":11
						}
					]
				},
				{
					"attributes":{
						"POSITION":12,
						"NORMAL":13,
						"TEXCOORD_0":14
					},
					"indices":15,
					"material":1,
					"targets":[
						{
							"POSITION":16,
							"NORMAL":17
						},
						{
							"POSITION":18,
							"NORMAL":19
						},
						{
							"POSITION":20,
							"NORMAL":21
						},
						{
							"POSITION":22,
							"NORMAL":23
						}
					]
				}
			],
			"weights":[
				0,
				0,
				0,
				0
			]
		}
	],
	"textures":[
		{
			"sampler":0,
			"source":0
		},
		{
			"sampler":0,
			"source":1
		},
		{
			"sampler":0,
			"source":0
		},
		{
			"sampler":0,
			"source":1
		}
	],
	"images":[
		{
			"mimeType":"image/png",
			"name":"W110C90H120_normal_1001",
			"uri":"W110C90H120_normal_1001.png"
		},
		{
			"mimeType":"image/png",
			"name":"W110C90H120_diffuse_1001",
			"uri":"W110C90H120_diffuse_1001.png"
		}
	],
	"accessors":[
		{
			"bufferView":0,
			"componentType":5126,
			"count":9430,
			"max":[
				512.4719848632812,
				332.6290283203125,
				-678.1234741210938
			],
			"min":[
				-507.12738037109375,
				-75.24658203125,
				-1375.3740234375
			],
			"type":"VEC3"
		},
		{
			"bufferView":1,
			"componentType":5126,
			"count":9430,
			"type":"VEC3"
		},
		{
			"bufferView":2,
			"componentType":5126,
			"count":9430,
			"type":"VEC2"
		},
		{
			"bufferView":3,
			"componentType":5123,
			"count":50124,
			"type":"SCALAR"
		},
		{
			"bufferView":4,
			"componentType":5126,
			"count":9430,
			"max":[
				108.35702514648438,
				48.288970947265625,
				115.383544921875
			],
			"min":[
				-120.00189208984375,
				-59.054527282714844,
				-43.22100830078125
			],
			"type":"VEC3"
		},
		{
			"bufferView":5,
			"componentType":5126,
			"count":9430,
			"type":"VEC3"
		},
		{
			"bufferView":6,
			"componentType":5126,
			"count":9430,
			"max":[
				93.04147338867188,
				37.423675537109375,
				23.76617431640625
			],
			"min":[
				-94.78668212890625,
				-23.063705444335938,
				-107.1658935546875
			],
			"type":"VEC3"
		},
		{
			"bufferView":7,
			"componentType":5126,
			"count":9430,
			"type":"VEC3"
		},
		{
			"bufferView":8,
			"componentType":5126,
			"count":9430,
			"max":[
				47.46954345703125,
				93.27249145507812,
				-226.9615478515625
			],
			"min":[
				-52.39215087890625,
				-42.802947998046875,
				-274.161865234375
			],
			"type":"VEC3"
		},
		{
			"bufferView":9,
			"componentType":5126,
			"count":9430,
			"type":"VEC3"
		},
		{
			"bufferView":10,
			"componentType":5126,
			"count":9430,
			"max":[
				43.18804931640625,
				62.854312896728516,
				191.59039306640625
			],
			"min":[
				-49.06111145019531,
				-64.01364135742188,
				127.07525634765625
			],
			"type":"VEC3"
		},
		{
			"bufferView":11,
			"componentType":5126,
			"count":9430,
			"type":"VEC3"
		},
		{
			"bufferView":12,
			"componentType":5126,
			"count":891,
			"max":[
				223.46823120117188,
				270.6343078613281,
				-1205.1129150390625
			],
			"min":[
				-208.6835479736328,
				-7.523755073547363,
				-1375.3740234375
			],
			"type":"VEC3"
		},
		{
			"bufferView":13,
			"componentType":5126,
			"count":891,
			"type":"VEC3"
		},
		{
			"bufferView":14,
			"componentType":5126,
			"count":891,
			"type":"VEC2"
		},
		{
			"bufferView":15,
			"componentType":5123,
			"count":4338,
			"type":"SCALAR"
		},
		{
			"bufferView":16,
			"componentType":5126,
			"count":891,
			"max":[
				-0.0545806884765625,
				2.6047139167785645,
				17.6966552734375
			],
			"min":[
				-12.029304504394531,
				-8.308513641357422,
				-14.734375
			],
			"type":"VEC3"
		},
		{
			"bufferView":17,
			"componentType":5126,
			"count":891,
			"type":"VEC3"
		},
		{
			"bufferView":18,
			"componentType":5126,
			"count":891,
			"max":[
				2.14886474609375,
				9.429271697998047,
				9.1409912109375
			],
			"min":[
				-4.694129943847656,
				-2.829730987548828,
				-1.4234619140625
			],
			"type":"VEC3"
		},
		{
			"bufferView":19,
			"componentType":5126,
			"count":891,
			"type":"VEC3"
		},
		{
			"bufferView":20,
			"componentType":5126,
			"count":891,
			"max":[
				7.980804443359375,
				5.100673675537109,
				-243.071533203125
			],
			"min":[
				-13.415985107421875,
				-19.972274780273438,
				-258.8896484375
			],
			"type":"VEC3"
		},
		{
			"bufferView":21,
			"componentType":5126,
			"count":891,
			"type":"VEC3"
		},
		{
			"bufferView":22,
			"componentType":5126,
			"count":891,
			"max":[
				3.65606689453125,
				15.876739501953125,
				168.253173828125
			],
			"min":[
				-9.450851440429688,
				-6.207740783691406,
				138.9693603515625
			],
			"type":"VEC3"
		},
		{
			"bufferView":23,
			"componentType":5126,
			"count":891,
			"type":"VEC3"
		}
	],
	"bufferViews":[
		{
			"buffer":0,
			"byteLength":113160,
			"byteOffset":0,
			"target":34962
		},
		{
			"buffer":0,
			"byteLength":113160,
			"byteOffset":113160,
			"target":34962
		},
		{
			"buffer":0,
			"byteLength":75440,
			"byteOffset":226320,
			"target":34962
		},
		{
			"buffer":0,
			"byteLength":100248,
			"byteOffset":301760,
			"target":34963
		},
		{
			"buffer":0,
			"byteLength":113160,
			"byteOffset":402008,
			"target":34962
		},
		{
			"buffer":0,
			"byteLength":113160,
			"byteOffset":515168,
			"target":34962
		},
		{
			"buffer":0,
			"byteLength":113160,
			"byteOffset":628328,
			"target":34962
		},
		{
			"buffer":0,
			"byteLength":113160,
			"byteOffset":741488,
			"target":34962
		},
		{
			"buffer":0,
			"byteLength":113160,
			"byteOffset":854648,
			"target":34962
		},
		{
			"buffer":0,
			"byteLength":113160,
			"byteOffset":967808,
			"target":34962
		},
		{
			"buffer":0,
			"byteLength":113160,
			"byteOffset":1080968,
			"target":34962
		},
		{
			"buffer":0,
			"byteLength":113160,
			"byteOffset":1194128,
			"target":34962
		},
		{
			"buffer":0,
			"byteLength":10692,
			"byteOffset":1307288,
			"target":34962
		},
		{
			"buffer":0,
			"byteLength":10692,
			"byteOffset":1317980,
			"target":34962
		},
		{
			"buffer":0,
			"byteLength":7128,
			"byteOffset":1328672,
			"target":34962
		},
		{
			"buffer":0,
			"byteLength":8676,
			"byteOffset":1335800,
			"target":34963
		},
		{
			"buffer":0,
			"byteLength":10692,
			"byteOffset":1344476,
			"target":34962
		},
		{
			"buffer":0,
			"byteLength":10692,
			"byteOffset":1355168,
			"target":34962
		},
		{
			"buffer":0,
			"byteLength":10692,
			"byteOffset":1365860,
			"target":34962
		},
		{
			"buffer":0,
			"byteLength":10692,
			"byteOffset":1376552,
			"target":34962
		},
		{
			"buffer":0,
			"byteLength":10692,
			"byteOffset":1387244,
			"target":34962
		},
		{
			"buffer":0,
			"byteLength":10692,
			"byteOffset":1397936,
			"target":34962
		},
		{
			"buffer":0,
			"byteLength":10692,
			"byteOffset":1408628,
			"target":34962
		},
		{
			"buffer":0,
			"byteLength":10692,
			"byteOffset":1419320,
			"target":34962
		}
	],
	"samplers":[
		{
			"magFilter":9729,
			"minFilter":9987
		}
	],
	"buffers":[
		{
			"byteLength":1430012,
			"uri":"W110C90H120.bin"
		}
	]
}
