{
	"asset":{
		"generator":"Khronos glTF Blender I/O v4.3.47",
		"version":"2.0"
	},
	"extensionsUsed":[
		"KHR_materials_specular"
	],
	"scene":0,
	"scenes":[
		{
			"name":"Scene",
			"nodes":[
				0
			]
		}
	],
	"nodes":[
		{
			"mesh":0,
			"name":"W60C70H100",
			"rotation":[
				0.7071068286895752,
				0,
				0,
				0.7071068286895752
			],
			"scale":[
				0.0010000000474974513,
				0.0010000000474974513,
				0.0010000000474974513
			]
		}
	],
	"materials":[
		{
			"doubleSided":true,
			"extensions":{
				"KHR_materials_specular":{
					"specularFactor":0.15000000596046448
				}
			},
			"name":"Linen_FRONT_30506097.008",
			"normalTexture":{
				"index":0,
				"scale":0
			},
			"pbrMetallicRoughness":{
				"baseColorTexture":{
					"index":1
				},
				"metallicFactor":0,
				"roughnessFactor":0.8304027318954468
			}
		},
		{
			"doubleSided":true,
			"extensions":{
				"KHR_materials_specular":{
					"specularFactor":0.15000000596046448
				}
			},
			"name":"Material8394942.008",
			"normalTexture":{
				"index":2,
				"scale":0
			},
			"pbrMetallicRoughness":{
				"baseColorTexture":{
					"index":3
				},
				"metallicFactor":0,
				"roughnessFactor":0.8304027318954468
			}
		}
	],
	"meshes":[
		{
			"extras":{
				"targetNames":[
					"W60C70H100_AL_max",
					"W60C70H100_AL_min",
					"W60C70H100_body_max",
					"W60C70H100_body_min"
				]
			},
			"name":"W60C70H100",
			"primitives":[
				{
					"attributes":{
						"POSITION":0,
						"NORMAL":1,
						"TEXCOORD_0":2
					},
					"indices":3,
					"material":0,
					"targets":[
						{
							"POSITION":4,
							"NORMAL":5
						},
						{
							"POSITION":6,
							"NORMAL":7
						},
						{
							"POSITION":8,
							"NORMAL":9
						},
						{
							"POSITION":10,
							"NORMAL":11
						}
					]
				},
				{
					"attributes":{
						"POSITION":12,
						"NORMAL":13,
						"TEXCOORD_0":14
					},
					"indices":15,
					"material":1,
					"targets":[
						{
							"POSITION":16,
							"NORMAL":17
						},
						{
							"POSITION":18,
							"NORMAL":19
						},
						{
							"POSITION":20,
							"NORMAL":21
						},
						{
							"POSITION":22,
							"NORMAL":23
						}
					]
				}
			],
			"weights":[
				0,
				0,
				0,
				0
			]
		}
	],
	"textures":[
		{
			"sampler":0,
			"source":0
		},
		{
			"sampler":0,
			"source":1
		},
		{
			"sampler":0,
			"source":0
		},
		{
			"sampler":0,
			"source":1
		}
	],
	"images":[
		{
			"mimeType":"image/png",
			"name":"W60C70H100_normal_1001",
			"uri":"W60C70H100_normal_1001.png"
		},
		{
			"mimeType":"image/png",
			"name":"W60C70H100_diffuse_1001",
			"uri":"W60C70H100_diffuse_1001.png"
		}
	],
	"accessors":[
		{
			"bufferView":0,
			"componentType":5126,
			"count":9430,
			"max":[
				515.7109985351562,
				264.0672912597656,
				-648.9392700195312
			],
			"min":[
				-514.4179077148438,
				-51.829654693603516,
				-1385.91015625
			],
			"type":"VEC3"
		},
		{
			"bufferView":1,
			"componentType":5126,
			"count":9430,
			"type":"VEC3"
		},
		{
			"bufferView":2,
			"componentType":5126,
			"count":9430,
			"type":"VEC2"
		},
		{
			"bufferView":3,
			"componentType":5123,
			"count":50124,
			"type":"SCALAR"
		},
		{
			"bufferView":4,
			"componentType":5126,
			"count":9430,
			"max":[
				117.74237060546875,
				51.02642059326172,
				106.92822265625
			],
			"min":[
				-113.50173950195312,
				-38.21723937988281,
				-32.26068115234375
			],
			"type":"VEC3"
		},
		{
			"bufferView":5,
			"componentType":5126,
			"count":9430,
			"type":"VEC3"
		},
		{
			"bufferView":6,
			"componentType":5126,
			"count":9430,
			"max":[
				99.18820190429688,
				65.50556945800781,
				16.8182373046875
			],
			"min":[
				-98.34600830078125,
				-32.52842712402344,
				-118.25067138671875
			],
			"type":"VEC3"
		},
		{
			"bufferView":7,
			"componentType":5126,
			"count":9430,
			"type":"VEC3"
		},
		{
			"bufferView":8,
			"componentType":5126,
			"count":9430,
			"max":[
				32.88433074951172,
				56.59395217895508,
				-227.831787109375
			],
			"min":[
				-50.28167724609375,
				-26.39257049560547,
				-304.028076171875
			],
			"type":"VEC3"
		},
		{
			"bufferView":9,
			"componentType":5126,
			"count":9430,
			"type":"VEC3"
		},
		{
			"bufferView":10,
			"componentType":5126,
			"count":9430,
			"max":[
				59.059661865234375,
				42.236541748046875,
				182.4324951171875
			],
			"min":[
				-54.20259094238281,
				-31.37274169921875,
				94.18548583984375
			],
			"type":"VEC3"
		},
		{
			"bufferView":11,
			"componentType":5126,
			"count":9430,
			"type":"VEC3"
		},
		{
			"bufferView":12,
			"componentType":5126,
			"count":891,
			"max":[
				211.9116973876953,
				234.4912872314453,
				-1180.173583984375
			],
			"min":[
				-207.37025451660156,
				-2.9872689247131348,
				-1385.91015625
			],
			"type":"VEC3"
		},
		{
			"bufferView":13,
			"componentType":5126,
			"count":891,
			"type":"VEC3"
		},
		{
			"bufferView":14,
			"componentType":5126,
			"count":891,
			"type":"VEC2"
		},
		{
			"bufferView":15,
			"componentType":5123,
			"count":4338,
			"type":"SCALAR"
		},
		{
			"bufferView":16,
			"componentType":5126,
			"count":891,
			"max":[
				2.5766754150390625,
				11.609823226928711,
				6.359375
			],
			"min":[
				-3.802642822265625,
				-0.922119140625,
				-7.3243408203125
			],
			"type":"VEC3"
		},
		{
			"bufferView":17,
			"componentType":5126,
			"count":891,
			"type":"VEC3"
		},
		{
			"bufferView":18,
			"componentType":5126,
			"count":891,
			"max":[
				4.6462860107421875,
				13.877096176147461,
				12.4393310546875
			],
			"min":[
				-6.194301605224609,
				-0.8971171379089355,
				-3.11376953125
			],
			"type":"VEC3"
		},
		{
			"bufferView":19,
			"componentType":5126,
			"count":891,
			"type":"VEC3"
		},
		{
			"bufferView":20,
			"componentType":5126,
			"count":891,
			"max":[
				-0.40283203125,
				5.850759029388428,
				-233.6937255859375
			],
			"min":[
				-16.300376892089844,
				-17.429702758789062,
				-270.3187255859375
			],
			"type":"VEC3"
		},
		{
			"bufferView":21,
			"componentType":5126,
			"count":891,
			"type":"VEC3"
		},
		{
			"bufferView":22,
			"componentType":5126,
			"count":891,
			"max":[
				0.35883331298828125,
				10.311752319335938,
				178.1414794921875
			],
			"min":[
				-17.170902252197266,
				-14.37335205078125,
				141.30029296875
			],
			"type":"VEC3"
		},
		{
			"bufferView":23,
			"componentType":5126,
			"count":891,
			"type":"VEC3"
		}
	],
	"bufferViews":[
		{
			"buffer":0,
			"byteLength":113160,
			"byteOffset":0,
			"target":34962
		},
		{
			"buffer":0,
			"byteLength":113160,
			"byteOffset":113160,
			"target":34962
		},
		{
			"buffer":0,
			"byteLength":75440,
			"byteOffset":226320,
			"target":34962
		},
		{
			"buffer":0,
			"byteLength":100248,
			"byteOffset":301760,
			"target":34963
		},
		{
			"buffer":0,
			"byteLength":113160,
			"byteOffset":402008,
			"target":34962
		},
		{
			"buffer":0,
			"byteLength":113160,
			"byteOffset":515168,
			"target":34962
		},
		{
			"buffer":0,
			"byteLength":113160,
			"byteOffset":628328,
			"target":34962
		},
		{
			"buffer":0,
			"byteLength":113160,
			"byteOffset":741488,
			"target":34962
		},
		{
			"buffer":0,
			"byteLength":113160,
			"byteOffset":854648,
			"target":34962
		},
		{
			"buffer":0,
			"byteLength":113160,
			"byteOffset":967808,
			"target":34962
		},
		{
			"buffer":0,
			"byteLength":113160,
			"byteOffset":1080968,
			"target":34962
		},
		{
			"buffer":0,
			"byteLength":113160,
			"byteOffset":1194128,
			"target":34962
		},
		{
			"buffer":0,
			"byteLength":10692,
			"byteOffset":1307288,
			"target":34962
		},
		{
			"buffer":0,
			"byteLength":10692,
			"byteOffset":1317980,
			"target":34962
		},
		{
			"buffer":0,
			"byteLength":7128,
			"byteOffset":1328672,
			"target":34962
		},
		{
			"buffer":0,
			"byteLength":8676,
			"byteOffset":1335800,
			"target":34963
		},
		{
			"buffer":0,
			"byteLength":10692,
			"byteOffset":1344476,
			"target":34962
		},
		{
			"buffer":0,
			"byteLength":10692,
			"byteOffset":1355168,
			"target":34962
		},
		{
			"buffer":0,
			"byteLength":10692,
			"byteOffset":1365860,
			"target":34962
		},
		{
			"buffer":0,
			"byteLength":10692,
			"byteOffset":1376552,
			"target":34962
		},
		{
			"buffer":0,
			"byteLength":10692,
			"byteOffset":1387244,
			"target":34962
		},
		{
			"buffer":0,
			"byteLength":10692,
			"byteOffset":1397936,
			"target":34962
		},
		{
			"buffer":0,
			"byteLength":10692,
			"byteOffset":1408628,
			"target":34962
		},
		{
			"buffer":0,
			"byteLength":10692,
			"byteOffset":1419320,
			"target":34962
		}
	],
	"samplers":[
		{
			"magFilter":9729,
			"minFilter":9987
		}
	],
	"buffers":[
		{
			"byteLength":1430012,
			"uri":"W60C70H100.bin"
		}
	]
}
