{
	"asset":{
		"generator":"Khronos glTF Blender I/O v4.3.47",
		"version":"2.0"
	},
	"extensionsUsed":[
		"KHR_materials_specular"
	],
	"scene":0,
	"scenes":[
		{
			"name":"Scene",
			"nodes":[
				0
			]
		}
	],
	"nodes":[
		{
			"mesh":0,
			"name":"W70C110H100",
			"rotation":[
				0.7071068286895752,
				0,
				0,
				0.7071068286895752
			],
			"scale":[
				0.0010000000474974513,
				0.0010000000474974513,
				0.0010000000474974513
			]
		}
	],
	"materials":[
		{
			"doubleSided":true,
			"extensions":{
				"KHR_materials_specular":{
					"specularFactor":0.15000000596046448
				}
			},
			"name":"Linen_FRONT_30506097.151",
			"pbrMetallicRoughness":{
				"baseColorTexture":{
					"index":0
				},
				"metallicFactor":0,
				"roughnessFactor":0.8304027318954468
			}
		},
		{
			"doubleSided":true,
			"extensions":{
				"KHR_materials_specular":{
					"specularFactor":0.15000000596046448
				}
			},
			"name":"Material8394942.151",
			"pbrMetallicRoughness":{
				"baseColorTexture":{
					"index":1
				},
				"metallicFactor":0,
				"roughnessFactor":0.8304027318954468
			}
		}
	],
	"meshes":[
		{
			"extras":{
				"targetNames":[
					"W70C110H100_AL_max",
					"W70C110H100_AL_min",
					"W70C110H100_body_max",
					"W70C110H100_body_min"
				]
			},
			"name":"W70C110H100",
			"primitives":[
				{
					"attributes":{
						"POSITION":0,
						"NORMAL":1,
						"TEXCOORD_0":2
					},
					"indices":3,
					"material":0,
					"targets":[
						{
							"POSITION":4,
							"NORMAL":5
						},
						{
							"POSITION":6,
							"NORMAL":7
						},
						{
							"POSITION":8,
							"NORMAL":9
						},
						{
							"POSITION":10,
							"NORMAL":11
						}
					]
				},
				{
					"attributes":{
						"POSITION":12,
						"NORMAL":13,
						"TEXCOORD_0":14
					},
					"indices":15,
					"material":1,
					"targets":[
						{
							"POSITION":16,
							"NORMAL":17
						},
						{
							"POSITION":18,
							"NORMAL":19
						},
						{
							"POSITION":20,
							"NORMAL":21
						},
						{
							"POSITION":22,
							"NORMAL":23
						}
					]
				}
			],
			"weights":[
				0,
				0,
				0,
				0
			]
		}
	],
	"textures":[
		{
			"sampler":0,
			"source":0
		},
		{
			"sampler":0,
			"source":0
		}
	],
	"images":[
		{
			"mimeType":"image/png",
			"name":"W70C110H100_diffuse_1001",
			"uri":"W70C110H100_diffuse_1001.png"
		}
	],
	"accessors":[
		{
			"bufferView":0,
			"componentType":5126,
			"count":9430,
			"max":[
				508.9333801269531,
				317.304931640625,
				-677.0651245117188
			],
			"min":[
				-504.8697814941406,
				-45.162479400634766,
				-1374.5845947265625
			],
			"type":"VEC3"
		},
		{
			"bufferView":1,
			"componentType":5126,
			"count":9430,
			"type":"VEC3"
		},
		{
			"bufferView":2,
			"componentType":5126,
			"count":9430,
			"type":"VEC2"
		},
		{
			"bufferView":3,
			"componentType":5123,
			"count":50124,
			"type":"SCALAR"
		},
		{
			"bufferView":4,
			"componentType":5126,
			"count":9430,
			"max":[
				141.23062133789062,
				36.006011962890625,
				116.0958251953125
			],
			"min":[
				-124.24725341796875,
				-52.35795593261719,
				-29.1455078125
			],
			"type":"VEC3"
		},
		{
			"bufferView":5,
			"componentType":5126,
			"count":9430,
			"type":"VEC3"
		},
		{
			"bufferView":6,
			"componentType":5126,
			"count":9430,
			"max":[
				101.66168212890625,
				51.66559982299805,
				20.07159423828125
			],
			"min":[
				-80.46942138671875,
				-38.36106872558594,
				-114.5291748046875
			],
			"type":"VEC3"
		},
		{
			"bufferView":7,
			"componentType":5126,
			"count":9430,
			"type":"VEC3"
		},
		{
			"bufferView":8,
			"componentType":5126,
			"count":9430,
			"max":[
				76.02993774414062,
				118.36140441894531,
				-221.48193359375
			],
			"min":[
				-76.60270690917969,
				-40.36195373535156,
				-270.060791015625
			],
			"type":"VEC3"
		},
		{
			"bufferView":9,
			"componentType":5126,
			"count":9430,
			"type":"VEC3"
		},
		{
			"bufferView":10,
			"componentType":5126,
			"count":9430,
			"max":[
				66.62844848632812,
				32.61943435668945,
				174.0086669921875
			],
			"min":[
				-67.13134765625,
				-40.789024353027344,
				119.579345703125
			],
			"type":"VEC3"
		},
		{
			"bufferView":11,
			"componentType":5126,
			"count":9430,
			"type":"VEC3"
		},
		{
			"bufferView":12,
			"componentType":5126,
			"count":891,
			"max":[
				216.28668212890625,
				297.2460632324219,
				-1238.9495849609375
			],
			"min":[
				-211.22738647460938,
				-10.80312728881836,
				-1374.5845947265625
			],
			"type":"VEC3"
		},
		{
			"bufferView":13,
			"componentType":5126,
			"count":891,
			"type":"VEC3"
		},
		{
			"bufferView":14,
			"componentType":5126,
			"count":891,
			"type":"VEC2"
		},
		{
			"bufferView":15,
			"componentType":5123,
			"count":4338,
			"type":"SCALAR"
		},
		{
			"bufferView":16,
			"componentType":5126,
			"count":891,
			"max":[
				5.30908203125,
				7.858785629272461,
				7.8621826171875
			],
			"min":[
				-2.9999847412109375,
				-2.311004638671875,
				-1.8436279296875
			],
			"type":"VEC3"
		},
		{
			"bufferView":17,
			"componentType":5126,
			"count":891,
			"type":"VEC3"
		},
		{
			"bufferView":18,
			"componentType":5126,
			"count":891,
			"max":[
				3.9974517822265625,
				7.187142372131348,
				8.475830078125
			],
			"min":[
				-3.451995849609375,
				-5.27414608001709,
				-0.8004150390625
			],
			"type":"VEC3"
		},
		{
			"bufferView":19,
			"componentType":5126,
			"count":891,
			"type":"VEC3"
		},
		{
			"bufferView":20,
			"componentType":5126,
			"count":891,
			"max":[
				16.25725555419922,
				7.8689398765563965,
				-236.4378662109375
			],
			"min":[
				-15.54595947265625,
				-24.180572509765625,
				-263.85009765625
			],
			"type":"VEC3"
		},
		{
			"bufferView":21,
			"componentType":5126,
			"count":891,
			"type":"VEC3"
		},
		{
			"bufferView":22,
			"componentType":5126,
			"count":891,
			"max":[
				10.207229614257812,
				15.85333251953125,
				160.7701416015625
			],
			"min":[
				-11.813125610351562,
				-1.0131009817123413,
				132.2484130859375
			],
			"type":"VEC3"
		},
		{
			"bufferView":23,
			"componentType":5126,
			"count":891,
			"type":"VEC3"
		}
	],
	"bufferViews":[
		{
			"buffer":0,
			"byteLength":113160,
			"byteOffset":0,
			"target":34962
		},
		{
			"buffer":0,
			"byteLength":113160,
			"byteOffset":113160,
			"target":34962
		},
		{
			"buffer":0,
			"byteLength":75440,
			"byteOffset":226320,
			"target":34962
		},
		{
			"buffer":0,
			"byteLength":100248,
			"byteOffset":301760,
			"target":34963
		},
		{
			"buffer":0,
			"byteLength":113160,
			"byteOffset":402008,
			"target":34962
		},
		{
			"buffer":0,
			"byteLength":113160,
			"byteOffset":515168,
			"target":34962
		},
		{
			"buffer":0,
			"byteLength":113160,
			"byteOffset":628328,
			"target":34962
		},
		{
			"buffer":0,
			"byteLength":113160,
			"byteOffset":741488,
			"target":34962
		},
		{
			"buffer":0,
			"byteLength":113160,
			"byteOffset":854648,
			"target":34962
		},
		{
			"buffer":0,
			"byteLength":113160,
			"byteOffset":967808,
			"target":34962
		},
		{
			"buffer":0,
			"byteLength":113160,
			"byteOffset":1080968,
			"target":34962
		},
		{
			"buffer":0,
			"byteLength":113160,
			"byteOffset":1194128,
			"target":34962
		},
		{
			"buffer":0,
			"byteLength":10692,
			"byteOffset":1307288,
			"target":34962
		},
		{
			"buffer":0,
			"byteLength":10692,
			"byteOffset":1317980,
			"target":34962
		},
		{
			"buffer":0,
			"byteLength":7128,
			"byteOffset":1328672,
			"target":34962
		},
		{
			"buffer":0,
			"byteLength":8676,
			"byteOffset":1335800,
			"target":34963
		},
		{
			"buffer":0,
			"byteLength":10692,
			"byteOffset":1344476,
			"target":34962
		},
		{
			"buffer":0,
			"byteLength":10692,
			"byteOffset":1355168,
			"target":34962
		},
		{
			"buffer":0,
			"byteLength":10692,
			"byteOffset":1365860,
			"target":34962
		},
		{
			"buffer":0,
			"byteLength":10692,
			"byteOffset":1376552,
			"target":34962
		},
		{
			"buffer":0,
			"byteLength":10692,
			"byteOffset":1387244,
			"target":34962
		},
		{
			"buffer":0,
			"byteLength":10692,
			"byteOffset":1397936,
			"target":34962
		},
		{
			"buffer":0,
			"byteLength":10692,
			"byteOffset":1408628,
			"target":34962
		},
		{
			"buffer":0,
			"byteLength":10692,
			"byteOffset":1419320,
			"target":34962
		}
	],
	"samplers":[
		{
			"magFilter":9729,
			"minFilter":9987
		}
	],
	"buffers":[
		{
			"byteLength":1430012,
			"uri":"W70C110H100.bin"
		}
	]
}
