{
	"asset":{
		"generator":"Khronos glTF Blender I/O v4.3.47",
		"version":"2.0"
	},
	"extensionsUsed":[
		"KHR_materials_specular"
	],
	"scene":0,
	"scenes":[
		{
			"name":"Scene",
			"nodes":[
				0
			]
		}
	],
	"nodes":[
		{
			"mesh":0,
			"name":"W70C70H100",
			"rotation":[
				0.7071068286895752,
				0,
				0,
				0.7071068286895752
			],
			"scale":[
				0.0010000000474974513,
				0.0010000000474974513,
				0.0010000000474974513
			]
		}
	],
	"materials":[
		{
			"doubleSided":true,
			"extensions":{
				"KHR_materials_specular":{
					"specularFactor":0.15000000596046448
				}
			},
			"name":"Linen_FRONT_30506097.024",
			"pbrMetallicRoughness":{
				"baseColorTexture":{
					"index":0
				},
				"metallicFactor":0,
				"roughnessFactor":0.8304027318954468
			}
		},
		{
			"doubleSided":true,
			"extensions":{
				"KHR_materials_specular":{
					"specularFactor":0.15000000596046448
				}
			},
			"name":"Material8394942.024",
			"pbrMetallicRoughness":{
				"baseColorTexture":{
					"index":1
				},
				"metallicFactor":0,
				"roughnessFactor":0.8304027318954468
			}
		}
	],
	"meshes":[
		{
			"extras":{
				"targetNames":[
					"W70C70H100_AL_max",
					"W70C70H100_AL_min",
					"W70C70H100_body_max",
					"W70C70H100_body_min"
				]
			},
			"name":"W70C70H100",
			"primitives":[
				{
					"attributes":{
						"POSITION":0,
						"NORMAL":1,
						"TEXCOORD_0":2
					},
					"indices":3,
					"material":0,
					"targets":[
						{
							"POSITION":4,
							"NORMAL":5
						},
						{
							"POSITION":6,
							"NORMAL":7
						},
						{
							"POSITION":8,
							"NORMAL":9
						},
						{
							"POSITION":10,
							"NORMAL":11
						}
					]
				},
				{
					"attributes":{
						"POSITION":12,
						"NORMAL":13,
						"TEXCOORD_0":14
					},
					"indices":15,
					"material":1,
					"targets":[
						{
							"POSITION":16,
							"NORMAL":17
						},
						{
							"POSITION":18,
							"NORMAL":19
						},
						{
							"POSITION":20,
							"NORMAL":21
						},
						{
							"POSITION":22,
							"NORMAL":23
						}
					]
				}
			],
			"weights":[
				0,
				0,
				0,
				0
			]
		}
	],
	"textures":[
		{
			"sampler":0,
			"source":0
		},
		{
			"sampler":0,
			"source":0
		}
	],
	"images":[
		{
			"mimeType":"image/png",
			"name":"W70C70H100_diffuse_1001",
			"uri":"W70C70H100_diffuse_1001.png"
		}
	],
	"accessors":[
		{
			"bufferView":0,
			"componentType":5126,
			"count":9430,
			"max":[
				507.7896728515625,
				279.3452453613281,
				-651.9027099609375
			],
			"min":[
				-515.7115478515625,
				-37.76708221435547,
				-1373.7939453125
			],
			"type":"VEC3"
		},
		{
			"bufferView":1,
			"componentType":5126,
			"count":9430,
			"type":"VEC3"
		},
		{
			"bufferView":2,
			"componentType":5126,
			"count":9430,
			"type":"VEC2"
		},
		{
			"bufferView":3,
			"componentType":5123,
			"count":50124,
			"type":"SCALAR"
		},
		{
			"bufferView":4,
			"componentType":5126,
			"count":9430,
			"max":[
				100.39053344726562,
				18.57989501953125,
				112.53094482421875
			],
			"min":[
				-105.69085693359375,
				-47.40196228027344,
				-25.6837158203125
			],
			"type":"VEC3"
		},
		{
			"bufferView":5,
			"componentType":5126,
			"count":9430,
			"type":"VEC3"
		},
		{
			"bufferView":6,
			"componentType":5126,
			"count":9430,
			"max":[
				134.55963134765625,
				50.61262512207031,
				22.44049072265625
			],
			"min":[
				-95.70010375976562,
				-25.288021087646484,
				-120.17169189453125
			],
			"type":"VEC3"
		},
		{
			"bufferView":7,
			"componentType":5126,
			"count":9430,
			"type":"VEC3"
		},
		{
			"bufferView":8,
			"componentType":5126,
			"count":9430,
			"max":[
				51.41752624511719,
				38.98993682861328,
				-240.10150146484375
			],
			"min":[
				-40.394378662109375,
				-18.109298706054688,
				-260.9381103515625
			],
			"type":"VEC3"
		},
		{
			"bufferView":9,
			"componentType":5126,
			"count":9430,
			"type":"VEC3"
		},
		{
			"bufferView":10,
			"componentType":5126,
			"count":9430,
			"max":[
				51.66802978515625,
				38.6439208984375,
				168.928955078125
			],
			"min":[
				-50.76048278808594,
				-37.20806884765625,
				148.1844482421875
			],
			"type":"VEC3"
		},
		{
			"bufferView":11,
			"componentType":5126,
			"count":9430,
			"type":"VEC3"
		},
		{
			"bufferView":12,
			"componentType":5126,
			"count":891,
			"max":[
				209.96527099609375,
				229.79000854492188,
				-1206.0260009765625
			],
			"min":[
				-205.07388305664062,
				-3.9942080974578857,
				-1373.7939453125
			],
			"type":"VEC3"
		},
		{
			"bufferView":13,
			"componentType":5126,
			"count":891,
			"type":"VEC3"
		},
		{
			"bufferView":14,
			"componentType":5126,
			"count":891,
			"type":"VEC2"
		},
		{
			"bufferView":15,
			"componentType":5123,
			"count":4338,
			"type":"SCALAR"
		},
		{
			"bufferView":16,
			"componentType":5126,
			"count":891,
			"max":[
				5.0564117431640625,
				4.250387191772461,
				8.512451171875
			],
			"min":[
				-9.262718200683594,
				-2.7318315505981445,
				-3.08154296875
			],
			"type":"VEC3"
		},
		{
			"bufferView":17,
			"componentType":5126,
			"count":891,
			"type":"VEC3"
		},
		{
			"bufferView":18,
			"componentType":5126,
			"count":891,
			"max":[
				1.75921630859375,
				8.107291221618652,
				10.6785888671875
			],
			"min":[
				-2.4569015502929688,
				-1.3917694091796875,
				-0.995361328125
			],
			"type":"VEC3"
		},
		{
			"bufferView":19,
			"componentType":5126,
			"count":891,
			"type":"VEC3"
		},
		{
			"bufferView":20,
			"componentType":5126,
			"count":891,
			"max":[
				4.8806610107421875,
				4.385780334472656,
				-244.282470703125
			],
			"min":[
				-5.860160827636719,
				-12.383026123046875,
				-255.6004638671875
			],
			"type":"VEC3"
		},
		{
			"bufferView":21,
			"componentType":5126,
			"count":891,
			"type":"VEC3"
		},
		{
			"bufferView":22,
			"componentType":5126,
			"count":891,
			"max":[
				2.692790985107422,
				11.334259033203125,
				162.8470458984375
			],
			"min":[
				-3.1327438354492188,
				-4.330780029296875,
				147.6055908203125
			],
			"type":"VEC3"
		},
		{
			"bufferView":23,
			"componentType":5126,
			"count":891,
			"type":"VEC3"
		}
	],
	"bufferViews":[
		{
			"buffer":0,
			"byteLength":113160,
			"byteOffset":0,
			"target":34962
		},
		{
			"buffer":0,
			"byteLength":113160,
			"byteOffset":113160,
			"target":34962
		},
		{
			"buffer":0,
			"byteLength":75440,
			"byteOffset":226320,
			"target":34962
		},
		{
			"buffer":0,
			"byteLength":100248,
			"byteOffset":301760,
			"target":34963
		},
		{
			"buffer":0,
			"byteLength":113160,
			"byteOffset":402008,
			"target":34962
		},
		{
			"buffer":0,
			"byteLength":113160,
			"byteOffset":515168,
			"target":34962
		},
		{
			"buffer":0,
			"byteLength":113160,
			"byteOffset":628328,
			"target":34962
		},
		{
			"buffer":0,
			"byteLength":113160,
			"byteOffset":741488,
			"target":34962
		},
		{
			"buffer":0,
			"byteLength":113160,
			"byteOffset":854648,
			"target":34962
		},
		{
			"buffer":0,
			"byteLength":113160,
			"byteOffset":967808,
			"target":34962
		},
		{
			"buffer":0,
			"byteLength":113160,
			"byteOffset":1080968,
			"target":34962
		},
		{
			"buffer":0,
			"byteLength":113160,
			"byteOffset":1194128,
			"target":34962
		},
		{
			"buffer":0,
			"byteLength":10692,
			"byteOffset":1307288,
			"target":34962
		},
		{
			"buffer":0,
			"byteLength":10692,
			"byteOffset":1317980,
			"target":34962
		},
		{
			"buffer":0,
			"byteLength":7128,
			"byteOffset":1328672,
			"target":34962
		},
		{
			"buffer":0,
			"byteLength":8676,
			"byteOffset":1335800,
			"target":34963
		},
		{
			"buffer":0,
			"byteLength":10692,
			"byteOffset":1344476,
			"target":34962
		},
		{
			"buffer":0,
			"byteLength":10692,
			"byteOffset":1355168,
			"target":34962
		},
		{
			"buffer":0,
			"byteLength":10692,
			"byteOffset":1365860,
			"target":34962
		},
		{
			"buffer":0,
			"byteLength":10692,
			"byteOffset":1376552,
			"target":34962
		},
		{
			"buffer":0,
			"byteLength":10692,
			"byteOffset":1387244,
			"target":34962
		},
		{
			"buffer":0,
			"byteLength":10692,
			"byteOffset":1397936,
			"target":34962
		},
		{
			"buffer":0,
			"byteLength":10692,
			"byteOffset":1408628,
			"target":34962
		},
		{
			"buffer":0,
			"byteLength":10692,
			"byteOffset":1419320,
			"target":34962
		}
	],
	"samplers":[
		{
			"magFilter":9729,
			"minFilter":9987
		}
	],
	"buffers":[
		{
			"byteLength":1430012,
			"uri":"W70C70H100.bin"
		}
	]
}
