{
	"asset":{
		"generator":"Khronos glTF Blender I/O v4.3.47",
		"version":"2.0"
	},
	"extensionsUsed":[
		"KHR_materials_specular"
	],
	"scene":0,
	"scenes":[
		{
			"name":"Scene",
			"nodes":[
				0
			]
		}
	],
	"nodes":[
		{
			"mesh":0,
			"name":"W90C90H100",
			"rotation":[
				0.7071068286895752,
				0,
				0,
				0.7071068286895752
			],
			"scale":[
				0.0010000000474974513,
				0.0010000000474974513,
				0.0010000000474974513
			]
		}
	],
	"materials":[
		{
			"doubleSided":true,
			"extensions":{
				"KHR_materials_specular":{
					"specularFactor":0.15000000596046448
				}
			},
			"name":"Linen_FRONT_30506097.104",
			"normalTexture":{
				"index":0,
				"scale":0
			},
			"pbrMetallicRoughness":{
				"baseColorTexture":{
					"index":1
				},
				"metallicFactor":0,
				"roughnessFactor":0.8304027318954468
			}
		},
		{
			"doubleSided":true,
			"extensions":{
				"KHR_materials_specular":{
					"specularFactor":0.15000000596046448
				}
			},
			"name":"Material8394942.104",
			"normalTexture":{
				"index":2,
				"scale":0
			},
			"pbrMetallicRoughness":{
				"baseColorTexture":{
					"index":3
				},
				"metallicFactor":0,
				"roughnessFactor":0.8304027318954468
			}
		}
	],
	"meshes":[
		{
			"extras":{
				"targetNames":[
					"W90C90H100_AL_max",
					"W90C90H100_AL_min",
					"W90C90H100_body_max",
					"W90C90H100_body_min"
				]
			},
			"name":"W90C90H100",
			"primitives":[
				{
					"attributes":{
						"POSITION":0,
						"NORMAL":1,
						"TEXCOORD_0":2
					},
					"indices":3,
					"material":0,
					"targets":[
						{
							"POSITION":4,
							"NORMAL":5
						},
						{
							"POSITION":6,
							"NORMAL":7
						},
						{
							"POSITION":8,
							"NORMAL":9
						},
						{
							"POSITION":10,
							"NORMAL":11
						}
					]
				},
				{
					"attributes":{
						"POSITION":12,
						"NORMAL":13,
						"TEXCOORD_0":14
					},
					"indices":15,
					"material":1,
					"targets":[
						{
							"POSITION":16,
							"NORMAL":17
						},
						{
							"POSITION":18,
							"NORMAL":19
						},
						{
							"POSITION":20,
							"NORMAL":21
						},
						{
							"POSITION":22,
							"NORMAL":23
						}
					]
				}
			],
			"weights":[
				0,
				0,
				0,
				0
			]
		}
	],
	"textures":[
		{
			"sampler":0,
			"source":0
		},
		{
			"sampler":0,
			"source":1
		},
		{
			"sampler":0,
			"source":0
		},
		{
			"sampler":0,
			"source":1
		}
	],
	"images":[
		{
			"mimeType":"image/png",
			"name":"W90C90H100_normal_1001",
			"uri":"W90C90H100_normal_1001.png"
		},
		{
			"mimeType":"image/png",
			"name":"W90C90H100_diffuse_1001",
			"uri":"W90C90H100_diffuse_1001.png"
		}
	],
	"accessors":[
		{
			"bufferView":0,
			"componentType":5126,
			"count":9431,
			"max":[
				506.88232421875,
				319.10577392578125,
				-661.26953125
			],
			"min":[
				-517.8561401367188,
				-32.796932220458984,
				-1373.9560546875
			],
			"type":"VEC3"
		},
		{
			"bufferView":1,
			"componentType":5126,
			"count":9431,
			"type":"VEC3"
		},
		{
			"bufferView":2,
			"componentType":5126,
			"count":9431,
			"type":"VEC2"
		},
		{
			"bufferView":3,
			"componentType":5123,
			"count":50130,
			"type":"SCALAR"
		},
		{
			"bufferView":4,
			"componentType":5126,
			"count":9431,
			"max":[
				108.69729614257812,
				31.383285522460938,
				108.59576416015625
			],
			"min":[
				-110.38510131835938,
				-45.06175994873047,
				-31.4627685546875
			],
			"type":"VEC3"
		},
		{
			"bufferView":5,
			"componentType":5126,
			"count":9431,
			"type":"VEC3"
		},
		{
			"bufferView":6,
			"componentType":5126,
			"count":9431,
			"max":[
				85.55130004882812,
				41.6690559387207,
				36.3162841796875
			],
			"min":[
				-103.75155639648438,
				-22.840444564819336,
				-104.75677490234375
			],
			"type":"VEC3"
		},
		{
			"bufferView":7,
			"componentType":5126,
			"count":9431,
			"type":"VEC3"
		},
		{
			"bufferView":8,
			"componentType":5126,
			"count":9431,
			"max":[
				56.476104736328125,
				46.6690559387207,
				-204.46551513671875
			],
			"min":[
				-39.804412841796875,
				-51.86590576171875,
				-278.9857177734375
			],
			"type":"VEC3"
		},
		{
			"bufferView":9,
			"componentType":5126,
			"count":9431,
			"type":"VEC3"
		},
		{
			"bufferView":10,
			"componentType":5126,
			"count":9431,
			"max":[
				47.671539306640625,
				31.466567993164062,
				205.31304931640625
			],
			"min":[
				-48.92576599121094,
				-32.125762939453125,
				135.15545654296875
			],
			"type":"VEC3"
		},
		{
			"bufferView":11,
			"componentType":5126,
			"count":9431,
			"type":"VEC3"
		},
		{
			"bufferView":12,
			"componentType":5126,
			"count":891,
			"max":[
				213.45254516601562,
				269.4181213378906,
				-1208.387939453125
			],
			"min":[
				-217.0845184326172,
				-8.22962760925293,
				-1373.9560546875
			],
			"type":"VEC3"
		},
		{
			"bufferView":13,
			"componentType":5126,
			"count":891,
			"type":"VEC3"
		},
		{
			"bufferView":14,
			"componentType":5126,
			"count":891,
			"type":"VEC2"
		},
		{
			"bufferView":15,
			"componentType":5123,
			"count":4338,
			"type":"SCALAR"
		},
		{
			"bufferView":16,
			"componentType":5126,
			"count":891,
			"max":[
				4.7890167236328125,
				10.202682495117188,
				8.027099609375
			],
			"min":[
				-9.155929565429688,
				-1.5453840494155884,
				-9.449951171875
			],
			"type":"VEC3"
		},
		{
			"bufferView":17,
			"componentType":5126,
			"count":891,
			"type":"VEC3"
		},
		{
			"bufferView":18,
			"componentType":5126,
			"count":891,
			"max":[
				9.594528198242188,
				21.258689880371094,
				22.59228515625
			],
			"min":[
				-4.9886322021484375,
				-2.0880661010742188,
				-10.471923828125
			],
			"type":"VEC3"
		},
		{
			"bufferView":19,
			"componentType":5126,
			"count":891,
			"type":"VEC3"
		},
		{
			"bufferView":20,
			"componentType":5126,
			"count":891,
			"max":[
				16.744163513183594,
				13.652477264404297,
				-231.59130859375
			],
			"min":[
				-8.303081512451172,
				-13.87628173828125,
				-269.221923828125
			],
			"type":"VEC3"
		},
		{
			"bufferView":21,
			"componentType":5126,
			"count":891,
			"type":"VEC3"
		},
		{
			"bufferView":22,
			"componentType":5126,
			"count":891,
			"max":[
				14.3516845703125,
				25.467941284179688,
				167.404052734375
			],
			"min":[
				-6.9189300537109375,
				-0.7887109518051147,
				140.0958251953125
			],
			"type":"VEC3"
		},
		{
			"bufferView":23,
			"componentType":5126,
			"count":891,
			"type":"VEC3"
		}
	],
	"bufferViews":[
		{
			"buffer":0,
			"byteLength":113172,
			"byteOffset":0,
			"target":34962
		},
		{
			"buffer":0,
			"byteLength":113172,
			"byteOffset":113172,
			"target":34962
		},
		{
			"buffer":0,
			"byteLength":75448,
			"byteOffset":226344,
			"target":34962
		},
		{
			"buffer":0,
			"byteLength":100260,
			"byteOffset":301792,
			"target":34963
		},
		{
			"buffer":0,
			"byteLength":113172,
			"byteOffset":402052,
			"target":34962
		},
		{
			"buffer":0,
			"byteLength":113172,
			"byteOffset":515224,
			"target":34962
		},
		{
			"buffer":0,
			"byteLength":113172,
			"byteOffset":628396,
			"target":34962
		},
		{
			"buffer":0,
			"byteLength":113172,
			"byteOffset":741568,
			"target":34962
		},
		{
			"buffer":0,
			"byteLength":113172,
			"byteOffset":854740,
			"target":34962
		},
		{
			"buffer":0,
			"byteLength":113172,
			"byteOffset":967912,
			"target":34962
		},
		{
			"buffer":0,
			"byteLength":113172,
			"byteOffset":1081084,
			"target":34962
		},
		{
			"buffer":0,
			"byteLength":113172,
			"byteOffset":1194256,
			"target":34962
		},
		{
			"buffer":0,
			"byteLength":10692,
			"byteOffset":1307428,
			"target":34962
		},
		{
			"buffer":0,
			"byteLength":10692,
			"byteOffset":1318120,
			"target":34962
		},
		{
			"buffer":0,
			"byteLength":7128,
			"byteOffset":1328812,
			"target":34962
		},
		{
			"buffer":0,
			"byteLength":8676,
			"byteOffset":1335940,
			"target":34963
		},
		{
			"buffer":0,
			"byteLength":10692,
			"byteOffset":1344616,
			"target":34962
		},
		{
			"buffer":0,
			"byteLength":10692,
			"byteOffset":1355308,
			"target":34962
		},
		{
			"buffer":0,
			"byteLength":10692,
			"byteOffset":1366000,
			"target":34962
		},
		{
			"buffer":0,
			"byteLength":10692,
			"byteOffset":1376692,
			"target":34962
		},
		{
			"buffer":0,
			"byteLength":10692,
			"byteOffset":1387384,
			"target":34962
		},
		{
			"buffer":0,
			"byteLength":10692,
			"byteOffset":1398076,
			"target":34962
		},
		{
			"buffer":0,
			"byteLength":10692,
			"byteOffset":1408768,
			"target":34962
		},
		{
			"buffer":0,
			"byteLength":10692,
			"byteOffset":1419460,
			"target":34962
		}
	],
	"samplers":[
		{
			"magFilter":9729,
			"minFilter":9987
		}
	],
	"buffers":[
		{
			"byteLength":1430152,
			"uri":"W90C90H100.bin"
		}
	]
}
