{
	"asset":{
		"generator":"Khronos glTF Blender I/O v4.3.47",
		"version":"2.0"
	},
	"extensionsUsed":[
		"KHR_materials_specular"
	],
	"scene":0,
	"scenes":[
		{
			"name":"Scene",
			"nodes":[
				0
			]
		}
	],
	"nodes":[
		{
			"mesh":0,
			"name":"Vyshivanka",
			"rotation":[
				0.7071068286895752,
				0,
				0,
				0.7071068286895752
			],
			"scale":[
				0.0010000000474974513,
				0.0010000000474974513,
				0.0010000000474974513
			]
		}
	],
	"materials":[
		{
			"alphaMode":"BLEND",
			"doubleSided":true,
			"extensions":{
				"KHR_materials_specular":{
					"specularColorFactor":[
						2.0,
						2.0,
						2.0
					]
				}
			},
			"name":"Linen_FRONT_30506097",
			"pbrMetallicRoughness":{
				"baseColorTexture":{
					"index":0
				},
				"metallicFactor":0,
				"roughnessFactor":0.4636862874031067
			}
		},
		{
			"alphaMode":"BLEND",
			"doubleSided":true,
			"extensions":{
				"KHR_materials_specular":{
					"specularColorFactor":[
						2.0,
						2.0,
						2.0
					]
				}
			},
			"name":"Material8394942",
			"pbrMetallicRoughness":{
				"baseColorTexture":{
					"index":1
				},
				"metallicFactor":0,
				"roughnessFactor":0.4636862874031067
			}
		}
	],
	"meshes":[
		{
			"name":"Vyshivanka",
			"primitives":[
				{
					"attributes":{
						"POSITION":0,
						"NORMAL":1,
						"TEXCOORD_0":2
					},
					"indices":3,
					"material":0
				},
				{
					"attributes":{
						"POSITION":4,
						"NORMAL":5,
						"TEXCOORD_0":6
					},
					"indices":7,
					"material":1
				}
			]
		}
	],
	"textures":[
		{
			"sampler":0,
			"source":0
		},
		{
			"sampler":0,
			"source":0
		}
	],
	"images":[
		{
			"mimeType":"image/png",
			"name":"Vyshivanka_diffuse_1001",
			"uri":"Vyshivanka_diffuse_1001.png"
		}
	],
	"accessors":[
		{
			"bufferView":0,
			"componentType":5126,
			"count":9367,
			"max":[
				515.3377075195312,
				296.9099426269531,
				-650.1043701171875
			],
			"min":[
				-512.4069213867188,
				-37.64915084838867,
				-1373.6650390625
			],
			"type":"VEC3"
		},
		{
			"bufferView":1,
			"componentType":5126,
			"count":9367,
			"type":"VEC3"
		},
		{
			"bufferView":2,
			"componentType":5126,
			"count":9367,
			"type":"VEC2"
		},
		{
			"bufferView":3,
			"componentType":5123,
			"count":50073,
			"type":"SCALAR"
		},
		{
			"bufferView":4,
			"componentType":5126,
			"count":887,
			"max":[
				210.78363037109375,
				258.4764099121094,
				-1196.722412109375
			],
			"min":[
				-206.81668090820312,
				-1.3660720586776733,
				-1374.83447265625
			],
			"type":"VEC3"
		},
		{
			"bufferView":5,
			"componentType":5126,
			"count":887,
			"type":"VEC3"
		},
		{
			"bufferView":6,
			"componentType":5126,
			"count":887,
			"type":"VEC2"
		},
		{
			"bufferView":7,
			"componentType":5123,
			"count":4299,
			"type":"SCALAR"
		}
	],
	"bufferViews":[
		{
			"buffer":0,
			"byteLength":112404,
			"byteOffset":0,
			"target":34962
		},
		{
			"buffer":0,
			"byteLength":112404,
			"byteOffset":112404,
			"target":34962
		},
		{
			"buffer":0,
			"byteLength":74936,
			"byteOffset":224808,
			"target":34962
		},
		{
			"buffer":0,
			"byteLength":100146,
			"byteOffset":299744,
			"target":34963
		},
		{
			"buffer":0,
			"byteLength":10644,
			"byteOffset":399892,
			"target":34962
		},
		{
			"buffer":0,
			"byteLength":10644,
			"byteOffset":410536,
			"target":34962
		},
		{
			"buffer":0,
			"byteLength":7096,
			"byteOffset":421180,
			"target":34962
		},
		{
			"buffer":0,
			"byteLength":8598,
			"byteOffset":428276,
			"target":34963
		}
	],
	"samplers":[
		{
			"magFilter":9729,
			"minFilter":9987
		}
	],
	"buffers":[
		{
			"byteLength":436876,
			"uri":"Vysh.bin"
		}
	]
}
